<svg width="200" height="200" viewBox="0 0 200 200" fill="none" xmlns="http://www.w3.org/2000/svg">
<rect width="200" height="200" rx="20" fill="url(#paint0_linear_21_307)"/>
<rect width="152" height="165" transform="translate(24 17)" fill="url(#paint1_linear_21_307)"/>
<path d="M71.9519 33.5499C82.0577 27.7153 92.9569 24.5006 103.864 23.694C105.043 23.6068 105.272 25.3329 104.152 25.7119C99.9963 27.1175 95.9176 28.9508 91.9734 31.2281C59.6886 49.8677 48.627 91.15 67.2667 123.435C85.9063 155.72 127.189 166.781 159.473 148.141C162.339 146.487 165.037 144.654 167.562 142.665C168.49 141.933 169.81 143.066 169.094 144.006C163.25 151.673 155.822 158.332 146.952 163.454C111.08 184.164 65.2107 171.874 44.5 136.002C23.7893 100.13 36.08 54.2605 71.9519 33.5499Z" fill="#D9D9D9" fill-opacity="0.35"/>
<path d="M73.8225 43.9424C74.0151 42.8381 75.6002 42.8381 75.7927 43.9424L76.1718 46.1158C76.2442 46.5313 76.5696 46.8567 76.9851 46.9291L79.1585 47.3081C80.2628 47.5007 80.2628 49.0858 79.1585 49.2784L76.9851 49.6574C76.5696 49.7299 76.2442 50.0553 76.1718 50.4708L75.7927 52.6442C75.6002 53.7485 74.0151 53.7485 73.8225 52.6442L73.4435 50.4708C73.371 50.0553 73.0456 49.7299 72.6301 49.6574L70.4567 49.2784C69.3524 49.0858 69.3524 47.5007 70.4567 47.3081L72.6301 46.9291C73.0456 46.8567 73.371 46.5313 73.4435 46.1158L73.8225 43.9424Z" fill="white"/>
<path d="M149.015 49.6491C149.207 48.5448 150.793 48.5448 150.985 49.6491L152.107 56.08C152.179 56.4956 152.504 56.8209 152.92 56.8934L159.351 58.0149C160.455 58.2074 160.455 59.7926 159.351 59.9851L152.92 61.1066C152.504 61.1791 152.179 61.5044 152.107 61.9199L150.985 68.3509C150.793 69.4552 149.207 69.4552 149.015 68.3509L147.893 61.92C147.821 61.5044 147.496 61.1791 147.08 61.1066L140.649 59.9851C139.545 59.7926 139.545 58.2074 140.649 58.0149L147.08 56.8934C147.496 56.8209 147.821 56.4956 147.893 56.0801L149.015 49.6491Z" fill="white"/>
<path d="M58.8225 128.942C59.0151 127.838 60.6002 127.838 60.7927 128.942L61.1718 131.116C61.2442 131.531 61.5696 131.857 61.9851 131.929L64.1585 132.308C65.2628 132.501 65.2628 134.086 64.1585 134.278L61.9851 134.657C61.5696 134.73 61.2442 135.055 61.1718 135.471L60.7927 137.644C60.6002 138.748 59.0151 138.748 58.8225 137.644L58.4435 135.471C58.371 135.055 58.0456 134.73 57.6301 134.657L55.4567 134.278C54.3524 134.086 54.3524 132.501 55.4567 132.308L57.6301 131.929C58.0456 131.857 58.371 131.531 58.4435 131.116L58.8225 128.942Z" fill="white"/>
<path d="M79.84 135V76.68H88L88.84 85.08H89.2C92 82.28 94.96 79.96 98.08 78.12C101.2 76.2 104.76 75.24 108.76 75.24C114.92 75.24 119.4 77.2 122.2 81.12C125.08 84.96 126.52 90.6 126.52 98.04V135H116.68V99.36C116.68 93.92 115.8 89.96 114.04 87.48C112.28 85 109.48 83.76 105.64 83.76C102.68 83.76 100 84.52 97.6 86.04C95.28 87.56 92.64 89.8 89.68 92.76V135H79.84Z" fill="white"/>
<defs>
<linearGradient id="paint0_linear_21_307" x1="4.5" y1="3.5" x2="204" y2="216" gradientUnits="userSpaceOnUse">
<stop stop-color="#4A1095"/>
<stop offset="1" stop-color="#290C96"/>
</linearGradient>
<linearGradient id="paint1_linear_21_307" x1="3.42" y1="2.8875" x2="168.306" y2="164.68" gradientUnits="userSpaceOnUse">
<stop stop-color="#4A1095"/>
<stop offset="1" stop-color="#290C96"/>
</linearGradient>
</defs>
</svg>
