<svg width="615" height="197" viewBox="0 0 615 197" fill="none" xmlns="http://www.w3.org/2000/svg">
<path d="M51.8224 111.942C52.015 110.838 53.6001 110.838 53.7927 111.942L54.1717 114.116C54.2442 114.531 54.5696 114.857 54.9851 114.929L57.1585 115.308C58.2628 115.501 58.2628 117.086 57.1585 117.278L54.9851 117.657C54.5696 117.73 54.2442 118.055 54.1717 118.471L53.7927 120.644C53.6001 121.748 52.015 121.748 51.8224 120.644L51.4434 118.471C51.371 118.055 51.0456 117.73 50.6301 117.657L48.4567 117.278C47.3524 117.086 47.3524 115.501 48.4567 115.308L50.6301 114.929C51.0456 114.857 51.371 114.531 51.4434 114.116L51.8224 111.942Z" fill="white"/>
<path d="M66.8224 26.9424C67.015 25.8381 68.6001 25.8381 68.7927 26.9424L69.1717 29.1158C69.2442 29.5313 69.5696 29.8567 69.9851 29.9291L72.1585 30.3081C73.2628 30.5007 73.2628 32.0858 72.1585 32.2784L69.9851 32.6574C69.5696 32.7299 69.2442 33.0553 69.1717 33.4708L68.7927 35.6442C68.6001 36.7485 67.015 36.7485 66.8224 35.6442L66.4434 33.4708C66.371 33.0553 66.0456 32.7299 65.6301 32.6574L63.4567 32.2784C62.3524 32.0858 62.3524 30.5007 63.4567 30.3081L65.6301 29.9291C66.0456 29.8567 66.371 29.5313 66.4434 29.1158L66.8224 26.9424Z" fill="white"/>
<path d="M142.015 32.6491C142.207 31.5448 143.793 31.5448 143.985 32.6491L145.107 39.08C145.179 39.4956 145.504 39.8209 145.92 39.8934L152.351 41.0149C153.455 41.2074 153.455 42.7926 152.351 42.9851L145.92 44.1066C145.504 44.1791 145.179 44.5044 145.107 44.92L143.985 51.3509C143.793 52.4552 142.207 52.4552 142.015 51.3509L140.893 44.92C140.821 44.5044 140.496 44.1791 140.08 44.1066L133.649 42.9851C132.545 42.7926 132.545 41.2074 133.649 41.0149L140.08 39.8934C140.496 39.8209 140.821 39.4956 140.893 39.0801L142.015 32.6491Z" fill="white"/>
<path d="M64.9519 16.5499C75.0577 10.7153 85.9569 7.50057 96.8636 6.69399C98.0429 6.60678 98.2718 8.33293 97.1516 8.71186C92.9963 10.1175 88.9176 11.9508 84.9734 14.2281C52.6886 32.8677 41.627 74.15 60.2667 106.435C78.9063 138.72 120.189 149.781 152.473 131.141C155.339 129.487 158.037 127.654 160.562 125.665C161.49 124.933 162.81 126.066 162.094 127.006C156.25 134.673 148.822 141.332 139.952 146.454C104.08 167.164 58.2107 154.874 37.5 119.002C16.7893 83.1298 29.08 37.2605 64.9519 16.5499Z" fill="#D9D9D9" fill-opacity="0.35"/>
<path d="M187.676 58.2402C189.276 58.2402 190.796 58.3997 192.236 58.7197C193.676 58.9597 194.916 59.2797 195.956 59.6797H216.236V67.2402H204.236C205.596 68.5202 206.717 70.2405 207.597 72.4004C208.557 74.4803 209.036 76.7604 209.036 79.2402C209.036 83.4001 208.076 87.0001 206.156 90.04C204.236 93.08 201.676 95.4401 198.477 97.1201C195.277 98.7201 191.676 99.5195 187.676 99.5195C184.556 99.5195 181.636 98.8404 178.916 97.4805C177.876 98.3604 176.996 99.3606 176.276 100.48C175.556 101.52 175.196 102.841 175.196 104.44C175.196 106.28 175.917 107.8 177.356 109C178.876 110.2 181.597 110.8 185.517 110.8H196.796C203.596 110.8 208.676 111.92 212.036 114.16C215.476 116.32 217.196 119.84 217.196 124.72C217.196 128.32 215.996 131.64 213.597 134.68C211.197 137.72 207.796 140.16 203.396 142C198.996 143.92 193.756 144.88 187.676 144.88C180.556 144.88 174.756 143.52 170.276 140.8C165.796 138.08 163.557 134.2 163.557 129.16C163.557 126.68 164.316 124.28 165.836 121.96C167.356 119.72 169.436 117.72 172.076 115.96V115.48C170.636 114.6 169.396 113.36 168.356 111.76C167.396 110.16 166.916 108.24 166.916 106C166.916 103.52 167.596 101.36 168.956 99.5195C170.316 97.6796 171.756 96.2402 173.276 95.2002V94.7197C171.356 93.1198 169.596 90.9602 167.996 88.2402C166.476 85.5202 165.716 82.44 165.716 79C165.716 74.7601 166.716 71.0799 168.716 67.96C170.716 64.84 173.396 62.4398 176.756 60.7598C180.116 59.0798 183.756 58.2403 187.676 58.2402ZM178.196 118C176.116 119.52 174.597 121.12 173.637 122.8C172.677 124.48 172.196 126.16 172.196 127.84C172.196 130.96 173.677 133.44 176.637 135.28C179.677 137.12 183.836 138.04 189.116 138.04C194.716 138.04 199.197 136.8 202.557 134.32C205.917 131.92 207.597 129.2 207.597 126.16C207.597 123.44 206.557 121.56 204.477 120.52C202.477 119.48 199.596 118.96 195.836 118.96H185.756C184.636 118.96 183.396 118.88 182.036 118.72C180.756 118.56 179.476 118.32 178.196 118ZM305.379 59.6797H321.099V67.7197H305.379V100.12C305.379 103.72 306.019 106.52 307.299 108.52C308.659 110.44 311.019 111.4 314.379 111.4C315.419 111.4 316.539 111.24 317.738 110.92L320.979 109.84L322.898 117.28C321.298 117.84 319.538 118.32 317.618 118.72C315.778 119.2 313.939 119.44 312.099 119.44C305.859 119.44 301.499 117.64 299.019 114.04C296.619 110.44 295.418 105.76 295.418 100V67.7197H286.778V60.2803L295.898 59.6797L297.099 43.3604H305.379V59.6797ZM455.617 58.2402C462.737 58.2402 467.898 60.4399 471.098 64.8398C474.298 69.1598 475.897 74.9602 475.897 82.2402V118H467.737L466.897 111.04H466.537C463.817 113.28 460.817 115.24 457.537 116.92C454.337 118.6 450.898 119.44 447.218 119.44C442.338 119.44 438.258 118 434.978 115.12C431.778 112.16 430.178 108.08 430.178 102.88C430.178 96.48 433.017 91.6002 438.697 88.2402C444.457 84.8002 453.538 82.4 465.938 81.04C465.938 78.56 465.577 76.2 464.857 73.96C464.217 71.72 463.018 69.9196 461.258 68.5596C459.578 67.1196 457.137 66.4004 453.938 66.4004C450.578 66.4004 447.417 67.0403 444.457 68.3203C441.497 69.6003 438.857 71.0397 436.537 72.6396L432.697 65.7998C435.417 64.0398 438.737 62.3597 442.657 60.7598C446.657 59.0798 450.977 58.2403 455.617 58.2402ZM556.516 58.2402C563.956 58.2402 569.676 60.7199 573.676 65.6797C577.756 70.6396 579.796 77.2798 579.796 85.5996C579.796 86.6395 579.756 87.6798 579.676 88.7197C579.676 89.6797 579.596 90.5202 579.436 91.2402H540.076C540.476 97.4001 542.396 102.32 545.836 106C549.356 109.68 553.916 111.519 559.516 111.52C562.316 111.52 564.876 111.12 567.196 110.32C569.596 109.44 571.876 108.32 574.036 106.96L577.516 113.44C575.036 115.04 572.196 116.44 568.996 117.64C565.876 118.84 562.316 119.44 558.316 119.44C553.116 119.44 548.396 118.24 544.156 115.84C539.916 113.36 536.556 109.84 534.076 105.28C531.596 100.72 530.355 95.28 530.355 88.96C530.355 82.56 531.596 77.0795 534.076 72.5195C536.636 67.9598 539.916 64.4399 543.916 61.96C547.916 59.48 552.116 58.2403 556.516 58.2402ZM101.76 58.2402C107.92 58.2402 112.4 60.2001 115.2 64.1201C118.08 67.9601 119.52 73.6001 119.52 81.04V118H109.68V82.3604C109.68 76.9206 108.8 72.9605 107.04 70.4805C105.28 68.0005 102.48 66.7598 98.6396 66.7598C95.6798 66.7598 92.9995 67.5201 90.5996 69.04C88.2797 70.56 85.6396 72.7999 82.6797 75.7598V118H72.8398V59.6797H81L81.8398 68.0801H82.2002C85.0002 65.2801 87.9601 62.9601 91.0801 61.1201C94.2 59.2002 97.7599 58.2403 101.76 58.2402ZM148.305 118H138.465V59.6797H148.305V118ZM238.305 55.8398L237.945 67.8398C240.745 65.1999 243.665 62.9601 246.705 61.1201C249.825 59.2002 253.385 58.2403 257.385 58.2402C263.545 58.2402 268.025 60.2001 270.825 64.1201C273.705 67.9601 275.145 73.6001 275.145 81.04V118H265.305V82.3604C265.305 76.9206 264.425 72.9605 262.665 70.4805C260.905 68.0005 258.105 66.7598 254.265 66.7598C251.305 66.7598 248.625 67.5201 246.225 69.04C243.905 70.56 241.265 72.7999 238.305 75.7598V118H228.465V32.5596H238.305V55.8398ZM397.045 58.2402C403.045 58.2402 407.485 60.2001 410.365 64.1201C413.325 67.9601 414.806 73.6001 414.806 81.04V118H404.965V82.3604C404.965 76.9205 404.085 72.9605 402.325 70.4805C400.565 68.0005 397.845 66.7598 394.165 66.7598C389.845 66.7599 384.965 69.76 379.525 75.7598V118H369.686V82.3604C369.686 76.9204 368.805 72.9605 367.045 70.4805C365.285 68.0005 362.525 66.7598 358.766 66.7598C354.446 66.7598 349.565 69.7598 344.125 75.7598V118H334.285V59.6797H342.445L343.285 68.0801H343.646C346.205 65.2802 349.005 62.9601 352.045 61.1201C355.085 59.2001 358.326 58.2402 361.766 58.2402C366.245 58.2403 369.725 59.2403 372.205 61.2402C374.765 63.1602 376.646 65.8804 377.846 69.4004C380.886 66.1205 383.965 63.4403 387.085 61.3604C390.205 59.2804 393.525 58.2403 397.045 58.2402ZM520.166 58.2402C522.486 58.2402 524.566 58.6404 526.406 59.4404L524.486 68.0801C523.527 67.7601 522.647 67.5204 521.847 67.3604C521.047 67.2004 520.046 67.1201 518.847 67.1201C516.367 67.1201 513.766 68.1201 511.046 70.1201C508.406 72.1201 506.086 75.5999 504.086 80.5596V118H494.246V59.6797H502.406L503.246 70.2402H503.606C505.606 66.5605 508.046 63.6404 510.926 61.4805C513.806 59.3205 516.886 58.2403 520.166 58.2402ZM465.938 87.5195C456.258 88.7195 449.457 90.5199 445.537 92.9199C441.697 95.3199 439.777 98.4002 439.777 102.16C439.777 105.44 440.777 107.84 442.777 109.36C444.777 110.8 447.218 111.52 450.098 111.52C452.898 111.52 455.538 110.84 458.018 109.48C460.498 108.12 463.138 106.2 465.938 103.72V87.5195ZM187.676 65.4404C184.236 65.4405 181.316 66.6401 178.916 69.04C176.516 71.44 175.316 74.7601 175.316 79C175.316 83.24 176.516 86.6402 178.916 89.2002C181.396 91.6801 184.316 92.9198 187.676 92.9199C191.036 92.9199 193.916 91.6802 196.316 89.2002C198.796 86.6402 200.036 83.24 200.036 79C200.036 74.7601 198.836 71.44 196.437 69.04C194.037 66.64 191.116 65.4404 187.676 65.4404ZM556.756 66.04C552.676 66.0401 548.996 67.6399 545.716 70.8398C542.516 73.9598 540.596 78.4002 539.956 84.1602H571.156C571.156 78.2402 569.876 73.7597 567.316 70.7197C564.836 67.5997 561.316 66.04 556.756 66.04Z" fill="white"/>
<path d="M308.736 186.96C305.962 186.96 303.322 186.453 300.816 185.44C298.309 184.373 296.122 183.093 294.256 181.6L297.536 177.2C299.242 178.533 301.002 179.653 302.816 180.56C304.629 181.413 306.682 181.84 308.976 181.84C311.536 181.84 313.456 181.253 314.736 180.08C316.016 178.853 316.656 177.413 316.656 175.76C316.656 174.427 316.202 173.307 315.296 172.4C314.442 171.493 313.322 170.747 311.936 170.16C310.602 169.52 309.216 168.933 307.776 168.4C305.962 167.707 304.176 166.933 302.416 166.08C300.656 165.173 299.216 164.027 298.096 162.64C296.976 161.2 296.416 159.387 296.416 157.2C296.416 154.053 297.589 151.44 299.936 149.36C302.336 147.227 305.642 146.16 309.856 146.16C312.256 146.16 314.496 146.587 316.576 147.44C318.656 148.293 320.442 149.333 321.936 150.56L318.736 154.72C317.402 153.707 316.016 152.88 314.576 152.24C313.136 151.6 311.562 151.28 309.856 151.28C307.402 151.28 305.589 151.84 304.416 152.96C303.296 154.08 302.736 155.387 302.736 156.88C302.736 158.107 303.136 159.12 303.936 159.92C304.736 160.667 305.776 161.333 307.056 161.92C308.336 162.453 309.696 163.013 311.136 163.6C313.002 164.293 314.842 165.093 316.656 166C318.469 166.853 319.962 168.027 321.136 169.52C322.362 170.96 322.976 172.907 322.976 175.36C322.976 177.44 322.416 179.36 321.296 181.12C320.229 182.88 318.629 184.293 316.496 185.36C314.416 186.427 311.829 186.96 308.736 186.96ZM347.211 186.96C344.065 186.96 341.105 186.16 338.331 184.56C335.611 182.96 333.398 180.64 331.691 177.6C330.038 174.56 329.211 170.907 329.211 166.64C329.211 162.267 330.038 158.56 331.691 155.52C333.398 152.48 335.611 150.16 338.331 148.56C341.105 146.96 344.065 146.16 347.211 146.16C350.411 146.16 353.371 146.96 356.091 148.56C358.811 150.16 360.998 152.48 362.651 155.52C364.358 158.56 365.211 162.267 365.211 166.64C365.211 170.907 364.358 174.56 362.651 177.6C360.998 180.64 358.811 182.96 356.091 184.56C353.371 186.16 350.411 186.96 347.211 186.96ZM347.211 181.52C350.571 181.52 353.265 180.16 355.291 177.44C357.371 174.667 358.411 171.067 358.411 166.64C358.411 162.16 357.371 158.533 355.291 155.76C353.265 152.987 350.571 151.6 347.211 151.6C343.905 151.6 341.211 152.987 339.131 155.76C337.051 158.533 336.011 162.16 336.011 166.64C336.011 171.067 337.051 174.667 339.131 177.44C341.211 180.16 343.905 181.52 347.211 181.52ZM376.571 186V152.48H371.291V147.52L376.571 147.12V140.96C376.571 137.013 377.477 133.893 379.291 131.6C381.157 129.253 384.037 128.08 387.931 128.08C389.157 128.08 390.331 128.213 391.451 128.48C392.571 128.693 393.557 128.987 394.411 129.36L392.971 134.4C391.531 133.76 390.064 133.44 388.571 133.44C384.944 133.44 383.131 135.947 383.131 140.96V147.12H397.371L398.171 136.24H403.611V147.12H414.171V152.48H403.611V174.08C403.611 176.48 404.064 178.347 404.971 179.68C405.877 180.96 407.451 181.6 409.691 181.6C410.384 181.6 411.131 181.493 411.931 181.28C412.731 181.013 413.451 180.773 414.091 180.56L415.371 185.52C414.304 185.893 413.131 186.213 411.851 186.48C410.624 186.8 409.397 186.96 408.171 186.96C404.011 186.96 401.104 185.76 399.451 183.36C397.851 180.96 397.051 177.84 397.051 174V152.48H383.131V186H376.571ZM429.111 186L418.311 147.12H425.031L430.791 169.6C431.217 171.413 431.617 173.227 431.991 175.04C432.364 176.8 432.737 178.587 433.111 180.4H433.431C433.857 178.587 434.284 176.8 434.711 175.04C435.137 173.227 435.591 171.413 436.071 169.6L442.071 147.12H448.471L454.551 169.6C455.031 171.413 455.484 173.227 455.911 175.04C456.391 176.8 456.844 178.587 457.271 180.4H457.591C458.017 178.587 458.417 176.8 458.791 175.04C459.217 173.227 459.617 171.413 459.991 169.6L465.671 147.12H471.911L461.511 186H453.511L447.911 165.12C447.431 163.253 446.977 161.413 446.551 159.6C446.177 157.787 445.751 155.893 445.271 153.92H444.951C444.524 155.893 444.097 157.813 443.671 159.68C443.244 161.493 442.764 163.333 442.231 165.2L436.791 186H429.111ZM488.551 186.96C485.298 186.96 482.578 186 480.391 184.08C478.258 182.107 477.191 179.387 477.191 175.92C477.191 171.653 479.085 168.4 482.871 166.16C486.711 163.867 492.765 162.267 501.031 161.36C501.031 159.707 500.791 158.133 500.311 156.64C499.885 155.147 499.085 153.947 497.911 153.04C496.791 152.08 495.165 151.6 493.031 151.6C490.791 151.6 488.685 152.027 486.711 152.88C484.738 153.733 482.978 154.693 481.431 155.76L478.871 151.2C480.685 150.027 482.898 148.907 485.511 147.84C488.178 146.72 491.058 146.16 494.151 146.16C498.898 146.16 502.338 147.627 504.471 150.56C506.605 153.44 507.671 157.307 507.671 162.16V186H502.231L501.671 181.36H501.431C499.618 182.853 497.618 184.16 495.431 185.28C493.298 186.4 491.005 186.96 488.551 186.96ZM490.471 181.68C492.338 181.68 494.098 181.227 495.751 180.32C497.405 179.413 499.165 178.133 501.031 176.48V165.68C494.578 166.48 490.045 167.68 487.431 169.28C484.871 170.88 483.591 172.933 483.591 175.44C483.591 177.627 484.258 179.227 485.591 180.24C486.925 181.2 488.551 181.68 490.471 181.68ZM519.904 186V147.12H525.344L525.904 154.16H526.144C527.477 151.707 529.104 149.76 531.024 148.32C532.944 146.88 534.997 146.16 537.184 146.16C538.73 146.16 540.117 146.427 541.344 146.96L540.064 152.72C539.424 152.507 538.837 152.347 538.304 152.24C537.77 152.133 537.104 152.08 536.304 152.08C534.65 152.08 532.917 152.747 531.104 154.08C529.344 155.413 527.797 157.733 526.464 161.04V186H519.904ZM562.617 186.96C559.15 186.96 556.004 186.16 553.177 184.56C550.35 182.907 548.11 180.56 546.457 177.52C544.804 174.48 543.977 170.853 543.977 166.64C543.977 162.373 544.804 158.72 546.457 155.68C548.164 152.64 550.35 150.293 553.017 148.64C555.684 146.987 558.484 146.16 561.417 146.16C566.377 146.16 570.19 147.813 572.857 151.12C575.577 154.427 576.937 158.853 576.937 164.4C576.937 165.093 576.91 165.787 576.857 166.48C576.857 167.12 576.804 167.68 576.697 168.16H550.457C550.724 172.267 552.004 175.547 554.297 178C556.644 180.453 559.684 181.68 563.417 181.68C565.284 181.68 566.99 181.413 568.537 180.88C570.137 180.293 571.657 179.547 573.097 178.64L575.417 182.96C573.764 184.027 571.87 184.96 569.737 185.76C567.657 186.56 565.284 186.96 562.617 186.96ZM550.377 163.44H571.177C571.177 159.493 570.324 156.507 568.617 154.48C566.964 152.4 564.617 151.36 561.577 151.36C558.857 151.36 556.404 152.427 554.217 154.56C552.084 156.64 550.804 159.6 550.377 163.44Z" fill="white" fill-opacity="0.6"/>
</svg>
